<svg width="320" height="220" viewBox="0 0 320 220" fill="none" xmlns="http://www.w3.org/2000/svg">
  <rect width="320" height="220" rx="26" fill="#111827"/>
  <g clip-path="url(#clip0_512_8)">
    <rect x="10" y="10" width="300" height="200" rx="20" fill="#D6B68A"/>
    <rect x="10" y="10" width="300" height="200" rx="20" fill="url(#paint0_linear_512_8)"/>
    <rect x="10" y="10" width="300" height="200" rx="20" fill="url(#paint1_linear_512_8)"/>
    <rect x="10" y="10" width="84" height="200" fill="url(#paint2_linear_512_8)"/>
    <rect x="22" y="28" width="26" height="155" rx="2" fill="#2E342B"/>
    <rect x="52" y="28" width="28" height="155" rx="2" fill="#22261F"/>
    <rect x="27" y="40" width="16" height="3" rx="1.5" fill="#95826B"/>
    <rect x="27" y="57" width="16" height="3" rx="1.5" fill="#95826B"/>
    <rect x="27" y="74" width="16" height="3" rx="1.5" fill="#95826B"/>
    <rect x="27" y="91" width="16" height="3" rx="1.5" fill="#95826B"/>
    <rect x="27" y="108" width="16" height="3" rx="1.5" fill="#95826B"/>
    <rect x="27" y="125" width="16" height="3" rx="1.5" fill="#95826B"/>
    <rect x="57" y="45" width="18" height="3" rx="1.5" fill="#8B745B"/>
    <rect x="57" y="63" width="18" height="3" rx="1.5" fill="#8B745B"/>
    <rect x="57" y="81" width="18" height="3" rx="1.5" fill="#8B745B"/>
    <rect x="57" y="99" width="18" height="3" rx="1.5" fill="#8B745B"/>
    <rect x="57" y="117" width="18" height="3" rx="1.5" fill="#8B745B"/>
    <rect x="57" y="135" width="18" height="3" rx="1.5" fill="#8B745B"/>
    <rect x="94" y="10" width="216" height="200" fill="url(#paint3_linear_512_8)"/>
    <rect x="110" y="28" width="58" height="93" rx="3" fill="#F2EAE0"/>
    <rect x="174" y="28" width="42" height="93" rx="3" fill="#F7F0E7"/>
    <rect x="222" y="28" width="42" height="93" rx="3" fill="#F7F0E7"/>
    <rect x="270" y="28" width="40" height="93" rx="3" fill="#F4ECE3"/>
    <rect x="110" y="28" width="58" height="93" rx="3" fill="url(#paint4_linear_512_8)" fill-opacity="0.28"/>
    <rect x="174" y="28" width="42" height="93" rx="3" fill="url(#paint4_linear_512_8)" fill-opacity="0.28"/>
    <rect x="222" y="28" width="42" height="93" rx="3" fill="url(#paint4_linear_512_8)" fill-opacity="0.28"/>
    <rect x="270" y="28" width="40" height="93" rx="3" fill="url(#paint4_linear_512_8)" fill-opacity="0.28"/>
    <path d="M120 109H298V145H120V109Z" fill="url(#paint5_linear_512_8)"/>
    <rect x="18" y="144" width="292" height="66" fill="url(#paint6_linear_512_8)"/>
    <path d="M131 122H184L178 169H137L131 122Z" fill="#7B5231"/>
    <rect x="143" y="93" width="28" height="36" rx="3" fill="#8E603A"/>
    <rect x="128" y="128" width="60" height="9" rx="4.5" fill="#B08B5F"/>
    <rect x="152" y="79" width="11" height="14" rx="2" fill="#C6A57D"/>
    <rect x="152" y="74" width="11" height="7" rx="3.5" fill="#C8B597"/>
    <rect x="188" y="132" width="34" height="22" rx="3" fill="#D6DCE6"/>
    <rect x="192" y="135" width="26" height="16" rx="2" fill="#F5F7FB"/>
    <rect x="243" y="96" width="44" height="40" rx="4" fill="#2A303A"/>
    <rect x="246" y="99" width="38" height="28" rx="2" fill="#F4F6FA"/>
    <rect x="255" y="130" width="20" height="4" rx="2" fill="#6B727D"/>
    <rect x="258" y="134" width="14" height="4" rx="2" fill="#5B616A"/>
    <path d="M214 145H291L286 154H209L214 145Z" fill="#2B3138"/>
    <path d="M227 154H278L284 170H221L227 154Z" fill="#1B2027"/>
    <path d="M96 146H206L198 182H88L96 146Z" fill="url(#paint7_linear_512_8)" fill-opacity="0.78"/>
    <path d="M96 146H206L198 182H88L96 146Z" stroke="rgba(255,255,255,0.35)" stroke-width="1"/>
    <rect x="103" y="151" width="85" height="1.2" fill="#9FAAB8" fill-opacity="0.65"/>
    <rect x="108" y="160" width="72" height="1.2" fill="#98A5B5" fill-opacity="0.55"/>
    <rect x="118" y="170" width="55" height="1.2" fill="#95A4B7" fill-opacity="0.5"/>
    <rect x="72" y="140" width="52" height="10" rx="2" transform="rotate(12 72 140)" fill="#B7A38A"/>
    <rect x="76" y="136" width="52" height="10" rx="2" transform="rotate(12 76 136)" fill="#D4C5B3"/>
    <rect x="80" y="132" width="52" height="10" rx="2" transform="rotate(12 80 132)" fill="#EEE3D7"/>
    <rect x="24" y="42" width="48" height="32" rx="4" fill="#E7D5B6" fill-opacity="0.14"/>
    <rect x="29" y="47" width="38" height="22" rx="3" stroke="#E4CEA4" stroke-opacity="0.7"/>
    <path d="M43 64V52L50 46L57 52V64" stroke="#4A6A3B" stroke-width="3" stroke-linecap="round" stroke-linejoin="round"/>
    <path d="M39 57L50 46L61 57" stroke="#B89B5B" stroke-width="3" stroke-linecap="round" stroke-linejoin="round"/>
    <circle cx="300" cy="39" r="16" fill="#F7E7BE" fill-opacity="0.28"/>
    <path d="M286 54C293 45 300 40 308 38" stroke="#CBAA63" stroke-width="2" stroke-linecap="round"/>
    <path d="M293 49H307" stroke="#CBAA63" stroke-width="2" stroke-linecap="round"/>
  </g>
  <rect x="10.5" y="10.5" width="299" height="199" rx="19.5" stroke="rgba(255,255,255,0.08)"/>
  <defs>
    <linearGradient id="paint0_linear_512_8" x1="160" y1="10" x2="160" y2="210" gradientUnits="userSpaceOnUse">
      <stop stop-color="#E7B873"/>
      <stop offset="1" stop-color="#8B5D35"/>
    </linearGradient>
    <linearGradient id="paint1_linear_512_8" x1="160" y1="10" x2="160" y2="210" gradientUnits="userSpaceOnUse">
      <stop stop-color="#FFF4E0" stop-opacity="0.28"/>
      <stop offset="1" stop-color="#1A1A1A" stop-opacity="0.18"/>
    </linearGradient>
    <linearGradient id="paint2_linear_512_8" x1="52" y1="10" x2="52" y2="210" gradientUnits="userSpaceOnUse">
      <stop stop-color="#342B1F"/>
      <stop offset="1" stop-color="#17150F"/>
    </linearGradient>
    <linearGradient id="paint3_linear_512_8" x1="202" y1="10" x2="202" y2="210" gradientUnits="userSpaceOnUse">
      <stop stop-color="#F5EBDD"/>
      <stop offset="1" stop-color="#9E825E"/>
    </linearGradient>
    <linearGradient id="paint4_linear_512_8" x1="210" y1="28" x2="210" y2="121" gradientUnits="userSpaceOnUse">
      <stop stop-color="#FFF7EC"/>
      <stop offset="1" stop-color="#A7B8CE"/>
    </linearGradient>
    <linearGradient id="paint5_linear_512_8" x1="209" y1="109" x2="209" y2="145" gradientUnits="userSpaceOnUse">
      <stop stop-color="#B3C9E3"/>
      <stop offset="1" stop-color="#EBD2AE"/>
    </linearGradient>
    <linearGradient id="paint6_linear_512_8" x1="164" y1="144" x2="164" y2="210" gradientUnits="userSpaceOnUse">
      <stop stop-color="#7E5A3C"/>
      <stop offset="1" stop-color="#4B3423"/>
    </linearGradient>
    <linearGradient id="paint7_linear_512_8" x1="147" y1="146" x2="147" y2="182" gradientUnits="userSpaceOnUse">
      <stop stop-color="#EDF2F8"/>
      <stop offset="1" stop-color="#C3CCD8"/>
    </linearGradient>
    <clipPath id="clip0_512_8">
      <rect x="10" y="10" width="300" height="200" rx="20" fill="white"/>
    </clipPath>
  </defs>
</svg>
